<?xml version="1.0" standalone="no"?>
<!DOCTYPE svg PUBLIC "-//W3C//DTD SVG 20010904//EN"
 "http://www.w3.org/TR/2001/REC-SVG-20010904/DTD/svg10.dtd">
<svg version="1.0" xmlns="http://www.w3.org/2000/svg"
 width="256.000000pt" height="256.000000pt" viewBox="0 0 256.000000 256.000000"
 preserveAspectRatio="xMidYMid meet">
<metadata>
Created by potrace 1.14, written by Peter Selinger 2001-2017
</metadata>
<g transform="translate(0.000000,256.000000) scale(0.100000,-0.100000)"
fill="#000000" stroke="none">
<path d="M1139 2545 c-2 -1 -22 -6 -44 -9 -90 -13 -114 -19 -195 -43 -258 -77
-513 -265 -669 -493 -66 -96 -139 -245 -165 -335 -10 -33 -21 -71 -26 -85 -32
-92 -43 -349 -21 -485 15 -88 51 -226 64 -242 5 -7 7 -13 4 -13 -3 0 12 -38
33 -85 144 -313 410 -558 730 -674 47 -17 84 -26 215 -57 11 -2 63 -7 116 -10
l96 -6 0 203 c1 112 -1 211 -3 219 -3 11 -19 16 -57 18 -181 6 -392 104 -534
249 -185 190 -265 435 -230 713 13 113 88 283 165 380 201 252 510 367 824
306 197 -38 380 -156 512 -329 60 -79 124 -231 142 -337 4 -25 9 -48 10 -52 1
-5 2 -28 3 -53 l1 -45 219 0 219 0 -3 73 c-8 140 -29 240 -82 382 -95 255
-280 476 -528 633 -120 75 -305 142 -458 167 -70 11 -329 19 -338 10z"/>
<path d="M1172 1838 c-49 -7 -97 -25 -182 -66 -58 -28 -184 -160 -217 -227
-53 -105 -66 -161 -67 -270 0 -283 185 -515 456 -571 157 -33 292 -5 455 91
l31 19 176 -177 c96 -97 179 -177 184 -177 10 0 82 73 82 84 0 5 -79 87 -175
184 -96 96 -175 179 -175 182 0 4 13 26 30 48 16 23 30 48 30 55 0 7 5 18 10
23 6 6 12 19 15 30 2 10 11 42 19 69 15 49 17 205 2 264 -50 210 -209 374
-419 432 -52 15 -184 18 -255 7z"/>
</g>
</svg>
